# xmcd CD database file
# Copyright (C) 1993-1997  Ti Kan
#
# Track frame offsets:
#	182
#	12702
#	25232
#	34590
#	47370
#	56347
#	66500
#	77920
#	87412
#	97855
#	111265
#	124477
#	137415
#	149067
#	159530
#	171115
#
# Disc length: 2490 seconds
#
# Revision: 3
# Processed by: cddbd v1.4b41PL1 Copyright (c) Steve Scherf et al.
# Submitted via: xmcd 2.1 PL1
#
DISCID=dc09b810
DTITLE=Jackie Wilson - The Very Best Of...
DYEAR=1900
DGENRE=
TTITLE0=Reet Petite
TTITLE1=Lonely Teardrops
TTITLE2=That's Why I Love You So
TTITLE3=Night
TTITLE4=You Better Know It
TTITLE5=Talk That Talk
TTITLE6=To Be Loved
TTITLE7=I'll Be Satisified
TTITLE8=Whispers (gettin' louder)
TTITLE9=Your Love Keeps Lifting Me Higher And Higher
TTITLE10=I Get The Sweetest Feeling
TTITLE11=Doggin' Around
TTITLE12=Am I The Man
TTITLE13=I'm Comin' On Back To You
TTITLE14=A Woman, A Lover, A Friend
TTITLE15=No Pity (in the naked city)
EXTD=
EXTT0=
EXTT1=
EXTT2=
EXTT3=
EXTT4=
EXTT5=
EXTT6=
EXTT7=
EXTT8=
EXTT9=
EXTT10=
EXTT11=
EXTT12=
EXTT13=
EXTT14=
EXTT15=
PLAYORDER=
